<svg width="255" height="256" viewBox="0 0 255 256" fill="none" xmlns="http://www.w3.org/2000/svg">
<g id="Create Note">
<g id="paper">
<rect id="sheet" x="0.707924" y="0.0698442" width="146.767" height="187.452" transform="matrix(0.77693 -0.629587 0.638917 0.769275 2.11329 110.636)" fill="white" stroke="black"/>
<path id="line" d="M128.089 32.3127L14.8571 124.07" stroke="#ACAAAA"/>
<line id="line_2" y1="-0.5" x2="145.742" y2="-0.5" transform="matrix(-0.77693 0.629587 -0.638917 -0.769275 140.159 46.8462)" stroke="#ACAAAA"/>
<line id="line_3" y1="-0.5" x2="145.742" y2="-0.5" transform="matrix(-0.77693 0.629587 -0.638917 -0.769275 152.23 61.3797)" stroke="#ACAAAA"/>
<line id="line_4" y1="-0.5" x2="145.742" y2="-0.5" transform="matrix(-0.77693 0.629587 -0.638917 -0.769275 164.301 75.9131)" stroke="#ACAAAA"/>
<line id="line_5" y1="-0.5" x2="145.742" y2="-0.5" transform="matrix(-0.77693 0.629587 -0.638917 -0.769275 176.372 90.4467)" stroke="#ACAAAA"/>
<path id="line_6" d="M188.442 104.98L75.2105 196.738" stroke="#ACAAAA"/>
<line id="line_7" y1="-0.5" x2="145.742" y2="-0.5" transform="matrix(-0.77693 0.629587 -0.638917 -0.769275 200.513 119.514)" stroke="#ACAAAA"/>
<line id="line_8" y1="-0.5" x2="145.742" y2="-0.5" transform="matrix(-0.77693 0.629587 -0.638917 -0.769275 212.583 134.047)" stroke="#ACAAAA"/>
<line id="line_9" y1="-0.5" x2="145.742" y2="-0.5" transform="matrix(-0.77693 0.629587 -0.638917 -0.769275 224.654 148.58)" stroke="#ACAAAA"/>
</g>
<g id="pencil">
<path id="base" d="M203.745 24.6418L230.589 51.1573L156.149 124.687C155.756 125.075 155.119 125.075 154.726 124.687L129.305 99.577C128.912 99.1889 128.912 98.5597 129.305 98.1716L203.745 24.6418Z" fill="#53C573"/>
<path id="eraser" d="M224.599 3.51371C226.564 1.57314 229.749 1.57314 231.713 3.51371L251.443 23.0017C253.407 24.9423 253.407 28.0886 251.443 30.0291L232.758 48.4853L205.914 21.9699L224.599 3.51371Z" fill="#399352"/>
<path id="tip" d="M116.969 137.857C116.204 138.082 115.491 137.378 115.718 136.622L126.041 102.31C126.258 101.588 127.178 101.358 127.717 101.89L152.131 126.005C152.67 126.538 152.437 127.446 151.706 127.661L116.969 137.857Z" fill="#399352"/>
</g>
</g>
</svg>
