<svg width="255" height="255" viewBox="0 0 255 255" fill="none" xmlns="http://www.w3.org/2000/svg">
<path d="M24.4348 74C23.7388 74 23.248 73.3306 23.4919 72.6788C26.1475 65.583 38.8064 32.2331 42.9682 30C47.6274 27.5 103 21 129 21C155 21 208.038 27.5 212.697 30C216.862 32.2345 229.002 65.6238 231.534 72.6918C231.767 73.3413 231.277 74 230.587 74H225.386C224.962 74 224.591 73.7525 224.449 73.353C222.768 68.6403 212.316 39.6729 208.038 36C203.379 32 155.5 27.5 129 27.5C103.403 27.5 55.6815 35.4305 48.2597 35.9711C47.8689 35.9995 47.5231 36.2289 47.3607 36.5855L30.5883 73.4145C30.4259 73.7711 30.0701 74 29.6783 74H24.4348Z" fill="#302C2C" stroke="#302C2C"/>
<path d="M221 74C221 74 221.591 71 224.545 71H230.455C233.409 71 234 74 234 74H221Z" fill="black"/>
<path d="M224.545 71C221.591 71 221 74 221 74H234C234 74 233.409 71 230.455 71M224.545 71C227.5 71 227.5 71 230.455 71M224.545 71H230.455" stroke="black"/>
<path d="M8 75C8 74.4477 8.44772 74 9 74H245C245.552 74 246 74.4477 246 75V232C246 232.552 245.552 233 245 233H8.99999C8.44771 233 8 232.552 8 232V75Z" fill="#372929"/>
<path d="M78.1213 149C55.8112 149 15.475 85.9684 8.91327 75.473C8.49939 74.811 9.00136 74 9.78208 74H244.301C245.063 74 245.567 74.774 245.19 75.4368C239.285 85.8226 202.543 149 182.478 149H78.1213Z" fill="#241E1E" stroke="#0C0C0C" stroke-opacity="0.15"/>
<circle cx="127" cy="141" r="4" fill="#4B1E1E"/>
<rect x="124" y="139" width="6" height="23" rx="1" fill="#643232"/>
<path d="M127.885 167.313C127.511 168.027 126.489 168.027 126.115 167.313L123.439 162.215C123.089 161.549 123.572 160.75 124.324 160.75H129.676C130.428 160.75 130.911 161.549 130.561 162.215L127.885 167.313Z" fill="#643232"/>
<circle cx="127" cy="164" r="1" fill="#FEF17C" fill-opacity="0.86"/>
<path d="M21 74C21 74 21.5909 71 24.5455 71H30.4545C33.4091 71 34 74 34 74H21Z" fill="black"/>
<path d="M24.5455 71C21.5909 71 21 74 21 74H34C34 74 33.4091 71 30.4545 71M24.5455 71C27.5 71 27.5 71 30.4545 71M24.5455 71H30.4545" stroke="black"/>
</svg>
